<svg id="svg" version="1.1" xmlns="http://www.w3.org/2000/svg" xmlns:xlink="http://www.w3.org/1999/xlink" width="400" height="400" viewBox="0, 0, 400,400"><g id="svgg"><path id="path0" d="M3.200 152.400 L 3.200 301.600 46.948 301.600 L 90.697 301.600 90.958 299.631 C 91.845 292.943,99.743 289.421,105.254 293.256 L 106.309 293.989 144.913 255.395 C 166.146 234.168,183.761 216.810,184.059 216.822 C 184.357 216.834,185.032 217.390,185.560 218.058 L 186.519 219.271 147.623 258.175 L 108.727 297.078 109.000 299.261 C 110.151 308.472,97.019 314.084,92.794 306.188 L 92.265 305.200 47.732 305.200 L 3.200 305.200 3.200 351.000 L 3.200 396.800 200.002 396.800 L 396.803 396.800 396.702 349.100 L 396.600 301.400 375.506 301.296 L 354.412 301.193 354.306 312.696 L 354.200 324.200 291.600 324.200 L 229.000 324.200 228.894 312.700 L 228.788 301.200 218.894 301.210 L 209.000 301.220 207.800 303.710 C 203.520 312.591,190.541 309.764,190.622 299.969 C 190.699 290.509,202.687 287.495,207.556 295.712 L 208.912 298.000 218.850 298.000 L 228.787 298.000 228.894 286.900 L 229.000 275.800 291.600 275.800 L 354.200 275.800 354.306 286.900 L 354.413 298.000 375.606 298.000 L 396.800 298.000 396.800 150.600 L 396.800 3.200 200.000 3.200 L 3.200 3.200 3.200 152.400 M260.000 85.578 C 265.521 86.343,266.425 86.517,266.633 86.853 C 266.751 87.044,267.366 87.200,268.000 87.200 C 268.634 87.200,269.264 87.380,269.400 87.600 C 269.536 87.820,270.076 88.000,270.600 88.000 C 271.124 88.000,271.664 88.180,271.800 88.400 C 271.936 88.620,272.309 88.800,272.628 88.800 C 273.501 88.800,276.800 90.433,276.800 90.865 C 276.800 91.664,272.407 100.331,271.917 100.499 C 271.633 100.596,270.643 100.354,269.718 99.960 C 266.224 98.472,263.541 97.642,258.800 96.582 C 255.873 95.927,246.566 95.787,244.628 96.369 C 243.953 96.572,242.320 97.041,241.000 97.411 C 232.683 99.747,226.239 105.871,222.703 114.800 C 222.485 115.350,222.148 116.113,221.953 116.495 C 221.759 116.877,221.600 117.606,221.600 118.115 C 221.600 118.624,221.438 119.211,221.241 119.420 C 219.853 120.889,219.307 137.405,220.460 143.000 C 221.101 146.105,221.644 148.135,222.039 148.895 C 222.238 149.277,222.400 149.864,222.400 150.200 C 222.400 150.536,222.559 151.123,222.753 151.505 C 222.948 151.887,223.346 152.740,223.639 153.400 C 226.349 159.508,235.409 167.600,239.537 167.600 C 239.986 167.600,240.449 167.756,240.567 167.947 C 241.406 169.304,262.993 169.306,263.831 167.950 C 263.950 167.757,264.478 167.600,265.004 167.600 C 265.530 167.600,267.005 167.305,268.280 166.945 C 269.556 166.585,271.140 166.270,271.800 166.245 L 273.000 166.200 273.110 171.200 L 273.221 176.200 272.110 176.649 C 265.079 179.494,253.830 180.881,244.671 180.033 C 241.772 179.765,238.860 179.390,238.200 179.200 C 237.540 179.010,236.190 178.641,235.200 178.382 C 227.259 176.296,219.279 170.507,214.547 163.400 C 206.523 151.346,204.421 129.704,209.673 113.200 C 210.399 110.917,213.383 104.546,213.982 104.000 C 214.103 103.890,214.456 103.305,214.768 102.700 C 215.080 102.095,215.485 101.600,215.668 101.600 C 215.850 101.600,216.000 101.361,216.000 101.069 C 216.000 98.636,230.335 88.000,233.615 88.000 C 233.833 88.000,234.323 87.838,234.705 87.639 C 235.087 87.440,236.120 87.095,237.000 86.872 C 237.880 86.649,239.320 86.280,240.200 86.053 C 244.773 84.874,253.426 84.666,260.000 85.578 M165.571 85.985 C 165.967 86.196,166.513 86.961,166.786 87.685 C 167.058 88.408,167.443 89.405,167.640 89.900 C 167.838 90.395,168.156 91.205,168.346 91.700 C 168.537 92.195,168.883 93.050,169.116 93.600 C 169.349 94.150,170.558 97.300,171.804 100.600 C 173.049 103.900,174.256 107.050,174.487 107.600 C 174.718 108.150,175.063 109.005,175.254 109.500 C 175.444 109.995,175.804 110.895,176.054 111.500 C 176.303 112.105,176.639 112.960,176.800 113.400 C 176.961 113.840,177.279 114.650,177.506 115.200 C 177.733 115.750,178.136 116.830,178.400 117.600 C 178.907 119.077,179.349 120.217,179.988 121.700 C 180.807 123.600,182.901 129.080,183.465 130.800 C 183.789 131.790,184.403 133.363,184.827 134.296 C 185.252 135.228,185.600 136.227,185.600 136.516 C 185.600 136.804,185.752 137.211,185.938 137.420 C 186.123 137.629,186.681 138.880,187.177 140.200 C 188.368 143.372,188.616 144.014,189.107 145.200 C 189.335 145.750,189.926 147.280,190.420 148.600 C 190.913 149.920,191.540 151.540,191.812 152.200 C 192.084 152.860,192.525 154.030,192.793 154.800 C 193.061 155.570,193.443 156.605,193.640 157.100 C 193.838 157.595,194.156 158.405,194.346 158.900 C 194.537 159.395,194.921 160.340,195.200 161.000 C 195.479 161.660,195.839 162.560,196.000 163.000 C 196.161 163.440,196.489 164.250,196.728 164.800 C 198.131 168.022,201.600 177.483,201.600 178.086 C 201.600 178.740,201.094 178.800,195.612 178.800 L 189.623 178.800 188.612 176.588 C 188.055 175.372,187.600 174.199,187.600 173.983 C 187.600 173.766,187.441 173.277,187.247 172.895 C 186.897 172.208,186.327 170.849,185.654 169.100 C 185.463 168.605,185.117 167.750,184.884 167.200 C 184.651 166.650,183.442 163.500,182.196 160.200 C 179.392 152.766,179.420 152.838,178.786 151.500 L 178.265 150.400 160.320 150.400 C 143.581 150.400,142.360 150.447,142.151 151.100 C 141.899 151.888,141.503 152.928,140.893 154.400 C 140.665 154.950,140.080 156.480,139.593 157.800 C 139.107 159.120,138.446 160.795,138.126 161.521 C 137.805 162.248,137.208 163.778,136.800 164.921 C 136.391 166.065,135.576 168.260,134.988 169.800 C 134.401 171.340,133.617 173.410,133.246 174.400 C 132.875 175.390,132.306 176.740,131.981 177.400 L 131.389 178.600 125.395 178.600 C 118.674 178.600,118.916 178.742,120.276 175.600 C 120.894 174.171,121.330 173.100,121.946 171.500 C 122.137 171.005,122.480 170.150,122.710 169.600 C 123.396 167.953,126.271 160.438,127.599 156.818 C 128.282 154.957,129.082 152.887,129.376 152.218 C 129.671 151.548,130.217 150.190,130.589 149.200 C 130.961 148.210,131.500 146.860,131.786 146.200 C 132.072 145.540,132.525 144.370,132.793 143.600 C 133.369 141.947,133.707 141.088,134.525 139.200 C 134.859 138.430,135.494 136.810,135.935 135.600 C 137.311 131.830,139.523 126.088,140.128 124.714 C 140.446 123.991,140.928 122.770,141.200 122.000 C 141.472 121.230,141.958 120.001,142.280 119.269 C 142.603 118.538,143.369 116.558,143.983 114.869 C 145.144 111.678,149.741 99.746,150.482 98.000 C 151.246 96.203,151.580 95.351,153.620 90.000 C 154.334 88.130,155.195 86.375,155.535 86.100 C 156.281 85.496,164.483 85.402,165.571 85.985 M160.100 100.870 C 159.825 101.633,159.600 102.638,159.600 103.105 C 159.600 103.571,159.420 104.064,159.200 104.200 C 158.980 104.336,158.800 104.889,158.800 105.429 C 158.800 105.969,158.641 106.723,158.446 107.105 C 158.251 107.487,157.702 109.060,157.226 110.600 C 156.749 112.140,156.204 113.760,156.015 114.200 C 155.826 114.640,155.012 116.800,154.205 119.000 C 153.399 121.200,152.591 123.360,152.410 123.800 C 152.229 124.240,151.864 125.230,151.600 126.000 C 151.336 126.770,150.933 127.850,150.706 128.400 C 149.960 130.206,149.673 130.961,148.421 134.400 C 147.740 136.270,147.005 138.115,146.788 138.500 C 146.415 139.161,147.176 139.200,160.397 139.200 C 168.098 139.200,174.400 139.075,174.400 138.922 C 174.400 138.656,170.324 127.471,169.619 125.800 C 169.433 125.360,169.064 124.370,168.800 123.600 C 168.223 121.919,167.849 120.933,167.282 119.600 C 166.182 117.012,161.009 101.705,160.740 100.242 C 160.636 99.678,160.471 99.840,160.100 100.870 M231.600 288.200 L 231.600 298.000 241.200 298.000 L 250.800 298.000 250.800 299.600 L 250.800 301.200 241.200 301.200 L 231.600 301.200 231.600 311.400 L 231.600 321.600 291.607 321.600 L 351.614 321.600 351.507 311.500 L 351.400 301.400 344.500 301.291 L 337.600 301.181 337.600 299.591 L 337.600 298.000 344.600 298.000 L 351.600 298.000 351.600 288.200 L 351.600 278.400 291.600 278.400 L 231.600 278.400 231.600 288.200 " stroke="none" fill="#fbfcfb" fill-rule="evenodd"></path><path id="path1" d="M0.000 200.000 L 0.000 400.000 200.000 400.000 L 400.000 400.000 400.000 200.000 L 400.000 0.000 200.000 0.000 L 0.000 0.000 0.000 200.000 M397.000 150.600 L 397.000 298.200 375.506 298.303 L 354.013 298.407 353.906 287.303 L 353.800 276.200 291.500 276.099 L 229.200 275.997 229.200 287.199 L 229.200 298.400 219.033 298.400 C 208.559 298.400,207.600 298.312,207.600 297.349 C 207.600 296.370,205.668 293.813,204.306 292.990 C 198.189 289.290,191.397 292.980,191.402 300.000 C 191.410 309.969,204.606 311.740,207.798 302.200 L 208.200 301.000 218.600 301.000 L 229.000 301.000 229.106 312.501 L 229.212 324.003 291.506 323.901 L 353.800 323.800 354.000 312.400 L 354.200 301.000 375.600 301.000 L 397.000 301.000 397.000 349.000 L 397.000 397.000 200.000 397.000 L 3.000 397.000 3.000 351.000 L 3.000 305.000 47.813 304.898 L 92.625 304.797 93.315 305.964 C 97.595 313.210,109.828 307.626,108.288 299.129 L 107.893 296.949 146.547 258.294 C 167.806 237.033,185.200 219.382,185.200 219.068 C 185.200 216.193,185.323 216.079,145.472 255.928 C 106.647 294.751,106.051 295.307,104.815 293.819 C 101.003 289.225,91.523 294.305,91.413 301.000 C 91.400 301.794,91.094 301.801,47.100 301.902 L 2.800 302.003 2.800 152.668 C 2.800 70.534,2.920 3.213,3.067 3.066 C 3.214 2.919,91.909 2.844,200.167 2.900 L 397.000 3.000 397.000 150.600 M245.600 86.016 C 238.356 86.690,232.227 88.580,227.443 91.614 C 226.414 92.266,225.398 92.800,225.186 92.800 C 224.974 92.800,224.800 92.941,224.800 93.114 C 224.800 93.286,224.282 93.733,223.649 94.107 C 221.702 95.258,215.200 102.241,215.200 103.182 C 215.200 103.380,214.968 103.781,214.683 104.071 C 207.171 111.758,205.143 141.394,211.172 155.400 C 216.284 167.277,223.232 173.839,234.600 177.526 C 239.125 178.994,242.159 179.268,251.800 179.082 C 261.934 178.886,265.106 178.466,270.712 176.581 L 272.824 175.871 272.712 171.235 C 272.618 167.349,272.503 166.625,272.000 166.753 C 271.670 166.838,270.680 167.071,269.800 167.272 C 268.920 167.472,267.480 167.820,266.600 168.043 C 259.350 169.886,246.858 170.496,242.600 169.215 C 241.940 169.017,240.590 168.623,239.600 168.341 C 234.732 166.952,229.933 163.496,225.925 158.492 C 215.803 145.854,217.004 117.848,228.243 104.439 C 229.645 102.766,233.782 99.699,236.245 98.506 C 238.728 97.304,239.059 97.184,242.600 96.217 C 247.518 94.873,258.665 95.190,262.600 96.785 C 263.040 96.963,264.210 97.347,265.200 97.638 C 266.190 97.928,268.031 98.579,269.292 99.083 C 270.553 99.587,271.646 100.000,271.721 100.000 C 272.083 100.000,276.049 91.204,275.840 90.865 C 275.289 89.973,267.620 87.602,261.600 86.462 C 258.543 85.883,249.680 85.636,245.600 86.016 M155.328 87.500 C 155.193 87.885,154.777 88.920,154.404 89.800 C 154.031 90.680,153.500 92.030,153.223 92.800 C 152.946 93.570,152.533 94.650,152.306 95.200 C 152.079 95.750,151.761 96.560,151.600 97.000 C 151.163 98.194,150.353 100.108,149.953 100.895 C 149.759 101.277,149.600 101.774,149.600 101.999 C 149.600 102.224,149.261 103.172,148.847 104.104 C 148.433 105.037,147.875 106.430,147.607 107.200 C 147.339 107.970,146.960 108.960,146.766 109.400 C 146.572 109.840,145.777 111.910,145.000 114.000 C 144.223 116.090,143.386 118.250,143.140 118.800 C 142.894 119.350,142.537 120.205,142.346 120.700 C 142.156 121.195,141.837 122.005,141.638 122.500 C 141.439 122.995,140.702 124.930,140.000 126.800 C 139.298 128.670,138.537 130.650,138.308 131.200 C 138.080 131.750,137.761 132.560,137.600 133.000 C 137.439 133.440,137.112 134.250,136.875 134.800 C 136.637 135.350,135.973 137.060,135.400 138.600 C 134.826 140.140,134.187 141.713,133.979 142.095 C 133.770 142.477,133.600 142.974,133.600 143.199 C 133.600 143.424,133.257 144.372,132.838 145.304 C 132.419 146.237,131.148 149.430,130.015 152.400 C 128.882 155.370,127.801 158.160,127.613 158.600 C 127.425 159.040,126.599 161.200,125.778 163.400 C 124.957 165.600,123.972 168.120,123.590 169.000 C 123.207 169.880,122.675 171.230,122.407 172.000 C 121.947 173.319,121.716 173.923,120.836 176.100 C 119.828 178.594,119.492 178.433,125.465 178.311 C 129.832 178.222,130.973 178.081,131.211 177.600 C 131.653 176.705,132.187 175.363,133.600 171.600 C 134.302 169.730,135.063 167.750,135.292 167.200 C 135.952 165.609,136.227 164.893,138.207 159.600 C 139.235 156.850,140.318 154.057,140.612 153.394 C 140.907 152.731,141.336 151.694,141.566 151.090 L 141.983 149.992 160.475 150.096 L 178.966 150.200 181.913 157.800 C 185.349 166.661,185.339 166.635,186.000 168.200 C 186.279 168.860,186.647 169.760,186.817 170.200 C 186.988 170.640,187.755 172.620,188.522 174.600 L 189.916 178.200 195.558 178.311 C 198.661 178.372,201.200 178.329,201.200 178.215 C 201.200 177.920,199.254 172.916,198.356 170.904 C 197.940 169.972,197.600 169.024,197.600 168.799 C 197.600 168.574,197.441 168.077,197.247 167.695 C 196.920 167.051,196.565 166.215,195.640 163.900 C 195.443 163.405,195.061 162.370,194.793 161.600 C 194.525 160.830,194.071 159.660,193.784 159.000 C 192.834 156.814,190.004 149.405,190.002 149.096 C 190.000 148.784,188.628 145.555,187.967 144.305 C 187.765 143.923,187.600 143.426,187.600 143.201 C 187.600 142.976,187.261 142.028,186.847 141.096 C 186.433 140.163,185.875 138.770,185.607 138.000 C 185.339 137.230,184.933 136.150,184.706 135.600 C 184.479 135.050,184.157 134.240,183.990 133.800 C 183.824 133.360,183.055 131.380,182.281 129.400 C 181.508 127.420,180.480 124.720,179.998 123.400 C 178.587 119.536,178.228 118.638,176.840 115.504 C 176.378 114.462,176.000 113.424,176.000 113.199 C 176.000 112.974,175.833 112.477,175.629 112.095 C 175.424 111.713,174.061 108.250,172.599 104.400 C 171.137 100.550,169.750 96.950,169.517 96.400 C 169.108 95.435,168.640 94.280,167.978 92.600 C 167.804 92.160,167.244 90.675,166.733 89.300 L 165.804 86.800 160.689 86.800 C 156.179 86.800,155.546 86.883,155.328 87.500 M161.583 100.800 C 162.644 104.462,165.626 113.422,166.007 114.095 C 166.223 114.477,166.400 115.064,166.400 115.400 C 166.400 115.736,166.559 116.323,166.753 116.705 C 167.079 117.346,167.393 118.087,168.361 120.500 C 168.930 121.919,170.193 125.371,172.202 131.000 C 173.223 133.860,174.224 136.560,174.428 137.000 C 174.632 137.440,174.844 138.250,174.899 138.800 L 175.000 139.800 160.825 139.905 C 144.268 140.028,145.373 140.361,147.201 135.800 C 147.378 135.360,147.917 133.920,148.400 132.600 C 148.883 131.280,149.465 129.750,149.693 129.200 C 150.283 127.777,150.651 126.800,151.200 125.200 C 151.464 124.430,151.834 123.440,152.021 123.000 C 153.488 119.549,157.014 109.498,157.984 106.000 C 158.259 105.010,158.645 103.787,158.842 103.281 C 159.039 102.776,159.200 102.123,159.200 101.830 C 159.200 100.847,160.451 98.291,160.758 98.647 C 160.925 98.841,161.296 99.810,161.583 100.800 M351.800 288.200 L 351.800 298.200 344.900 298.309 L 338.000 298.419 338.000 299.600 L 338.000 300.781 344.900 300.891 L 351.800 301.000 351.800 311.400 L 351.800 321.800 291.493 321.901 L 231.187 322.003 231.293 311.501 L 231.400 301.000 240.900 300.893 L 250.400 300.786 250.400 299.600 L 250.400 298.414 240.900 298.307 L 231.400 298.200 231.293 288.099 L 231.186 277.997 291.493 278.099 L 351.800 278.200 351.800 288.200 " stroke="none" fill="#5dd455" fill-rule="evenodd"></path><path id="path2" d="M249.500 85.095 C 250.655 85.176,252.545 85.176,253.700 85.095 C 254.855 85.014,253.910 84.948,251.600 84.948 C 249.290 84.948,248.345 85.014,249.500 85.095 M245.300 85.476 C 245.685 85.576,246.315 85.576,246.700 85.476 C 247.085 85.375,246.770 85.293,246.000 85.293 C 245.230 85.293,244.915 85.375,245.300 85.476 M155.500 86.032 C 155.115 86.256,154.800 86.624,154.800 86.848 C 154.800 87.073,155.083 86.974,155.429 86.629 C 156.178 85.879,164.266 85.717,165.726 86.422 C 166.570 86.830,166.574 86.823,165.824 86.222 C 164.911 85.491,156.688 85.340,155.500 86.032 M240.400 85.995 C 239.991 86.255,240.310 86.299,241.400 86.132 C 243.377 85.829,243.714 85.598,242.167 85.606 C 241.525 85.609,240.730 85.784,240.400 85.995 M259.633 85.744 C 259.725 85.823,260.700 85.991,261.800 86.118 C 263.087 86.267,263.515 86.226,263.000 86.003 C 262.236 85.672,259.286 85.445,259.633 85.744 M265.400 86.800 C 266.501 87.273,266.892 87.273,266.600 86.800 C 266.464 86.580,265.958 86.413,265.476 86.428 C 264.631 86.455,264.629 86.469,265.400 86.800 M228.300 90.229 C 226.805 91.040,226.896 91.378,228.400 90.600 C 229.060 90.259,229.600 89.894,229.600 89.790 C 229.600 89.532,229.557 89.547,228.300 90.229 M223.868 93.100 C 222.409 94.145,221.212 95.128,221.208 95.284 C 221.203 95.440,222.415 94.654,223.900 93.536 C 226.995 91.206,227.003 91.200,226.727 91.200 C 226.613 91.200,225.327 92.055,223.868 93.100 M248.915 95.896 C 250.188 95.976,252.168 95.975,253.315 95.894 C 254.462 95.814,253.420 95.749,251.000 95.750 C 248.580 95.751,247.642 95.816,248.915 95.896 M243.400 96.400 C 242.293 96.682,242.277 96.709,243.200 96.747 C 243.750 96.769,244.470 96.613,244.800 96.400 C 245.481 95.960,245.129 95.960,243.400 96.400 M258.000 96.400 C 258.550 96.576,259.360 96.720,259.800 96.720 C 260.433 96.720,260.392 96.654,259.600 96.400 C 259.050 96.224,258.240 96.080,257.800 96.080 C 257.167 96.080,257.208 96.146,258.000 96.400 M261.600 97.182 C 261.930 97.405,262.545 97.591,262.967 97.594 C 263.990 97.602,263.671 97.373,262.200 97.044 C 261.324 96.848,261.162 96.885,261.600 97.182 M235.100 99.429 C 233.549 100.270,233.725 100.561,235.300 99.759 C 236.808 98.993,237.075 98.794,236.567 98.816 C 236.365 98.825,235.705 99.101,235.100 99.429 M216.598 100.002 C 216.198 100.444,215.966 100.899,216.082 101.015 C 216.197 101.130,216.590 100.769,216.955 100.212 C 217.752 98.996,217.593 98.902,216.598 100.002 M160.812 100.800 C 160.812 101.130,160.987 101.670,161.200 102.000 C 161.545 102.533,161.588 102.533,161.588 102.000 C 161.588 101.670,161.413 101.130,161.200 100.800 C 160.855 100.267,160.812 100.267,160.812 100.800 M227.634 105.753 L 226.669 107.000 227.813 105.912 C 228.443 105.314,228.877 104.753,228.779 104.665 C 228.680 104.577,228.165 105.067,227.634 105.753 M212.400 106.800 C 211.951 107.680,211.674 108.400,211.784 108.400 C 211.894 108.400,212.351 107.680,212.800 106.800 C 213.249 105.920,213.526 105.200,213.416 105.200 C 213.306 105.200,212.849 105.920,212.400 106.800 M146.844 107.244 C 146.598 107.951,146.466 108.600,146.552 108.685 C 146.638 108.771,146.909 108.262,147.156 107.556 C 147.402 106.849,147.534 106.200,147.448 106.115 C 147.362 106.029,147.091 106.538,146.844 107.244 M210.650 110.391 C 209.747 112.647,209.887 112.983,210.837 110.842 C 211.266 109.875,211.545 109.012,211.458 108.925 C 211.371 108.838,211.008 109.498,210.650 110.391 M208.846 115.667 C 208.821 116.034,208.696 116.664,208.570 117.067 C 208.352 117.762,208.363 117.763,208.797 117.087 C 209.048 116.696,209.173 116.066,209.073 115.687 C 208.911 115.068,208.888 115.066,208.846 115.667 M207.800 120.000 C 207.648 120.691,207.607 121.341,207.709 121.442 C 207.811 121.544,208.009 121.053,208.150 120.350 C 208.483 118.683,208.160 118.360,207.800 120.000 M220.446 121.667 C 220.421 122.034,220.296 122.664,220.170 123.067 C 219.952 123.762,219.963 123.763,220.397 123.087 C 220.648 122.696,220.773 122.066,220.673 121.687 C 220.511 121.068,220.488 121.066,220.446 121.667 M180.067 122.820 C 180.301 123.492,180.567 123.967,180.657 123.876 C 180.856 123.678,180.101 121.600,179.831 121.600 C 179.727 121.600,179.833 122.149,180.067 122.820 M207.059 125.088 C 206.921 125.919,206.831 127.410,206.858 128.400 C 206.892 129.684,207.002 129.288,207.241 127.021 C 207.593 123.678,207.484 122.516,207.059 125.088 M219.401 129.700 C 219.252 131.515,219.285 134.530,219.475 136.400 C 219.787 139.485,219.818 139.179,219.809 133.100 C 219.799 125.425,219.771 125.194,219.401 129.700 M138.444 128.844 C 138.198 129.551,138.066 130.200,138.152 130.285 C 138.238 130.371,138.509 129.862,138.756 129.156 C 139.002 128.449,139.134 127.800,139.048 127.715 C 138.962 127.629,138.691 128.138,138.444 128.844 M206.847 137.033 C 206.873 138.335,207.031 139.940,207.197 140.600 C 207.364 141.261,207.408 140.272,207.294 138.400 C 207.055 134.440,206.779 133.596,206.847 137.033 M174.400 138.733 C 174.400 139.078,170.722 139.225,160.300 139.295 L 146.200 139.389 160.175 139.500 C 173.289 139.604,175.585 139.452,174.673 138.540 C 174.523 138.390,174.400 138.477,174.400 138.733 M220.068 142.400 C 220.088 143.439,220.718 145.146,220.732 144.200 C 220.738 143.760,220.589 143.040,220.400 142.600 C 220.189 142.110,220.061 142.032,220.068 142.400 M207.680 144.600 C 207.680 145.040,207.824 145.850,208.000 146.400 C 208.254 147.192,208.320 147.233,208.320 146.600 C 208.320 146.160,208.176 145.350,208.000 144.800 C 207.746 144.008,207.680 143.967,207.680 144.600 M151.500 150.300 C 156.395 150.363,164.405 150.363,169.300 150.300 C 174.195 150.236,170.190 150.184,160.400 150.184 C 150.610 150.184,146.605 150.236,151.500 150.300 M129.053 152.935 C 128.325 154.678,127.844 156.253,128.117 156.000 C 128.449 155.693,130.014 151.600,129.800 151.600 C 129.696 151.600,129.360 152.201,129.053 152.935 M225.443 157.127 C 225.859 157.857,226.548 158.757,226.974 159.127 C 227.424 159.518,227.266 159.131,226.596 158.200 C 224.993 155.974,224.550 155.561,225.443 157.127 M181.829 159.200 C 181.976 159.750,182.264 160.470,182.467 160.800 C 182.725 161.217,182.757 161.095,182.571 160.400 C 182.424 159.850,182.136 159.130,181.933 158.800 C 181.675 158.383,181.643 158.505,181.829 159.200 M229.000 161.600 C 229.859 162.480,230.652 163.200,230.762 163.200 C 230.872 163.200,230.259 162.480,229.400 161.600 C 228.541 160.720,227.748 160.000,227.638 160.000 C 227.528 160.000,228.141 160.720,229.000 161.600 M212.815 160.600 C 212.817 160.820,213.186 161.450,213.636 162.000 C 214.179 162.664,214.315 162.731,214.040 162.200 C 213.366 160.895,212.812 160.172,212.815 160.600 M231.567 163.745 C 232.100 164.401,233.600 165.393,233.600 165.089 C 233.600 165.013,233.015 164.522,232.300 163.999 C 231.496 163.410,231.216 163.313,231.567 163.745 M215.985 165.394 C 217.073 166.894,220.990 170.854,222.600 172.082 C 223.482 172.755,223.173 172.372,221.911 171.228 C 220.652 170.087,218.672 168.126,217.511 166.870 C 216.350 165.615,215.663 164.950,215.985 165.394 M196.867 166.020 C 197.101 166.692,197.367 167.167,197.457 167.076 C 197.656 166.878,196.901 164.800,196.631 164.800 C 196.527 164.800,196.633 165.349,196.867 166.020 M270.400 166.385 C 269.978 166.661,270.242 166.706,271.288 166.538 L 272.775 166.299 272.906 171.250 L 273.036 176.200 273.018 171.200 L 273.000 166.200 272.000 166.096 C 271.450 166.039,270.730 166.169,270.400 166.385 M267.400 167.200 C 266.381 167.638,267.432 167.638,268.800 167.200 C 269.604 166.943,269.643 166.877,269.000 166.868 C 268.560 166.862,267.840 167.011,267.400 167.200 M263.790 168.016 C 263.621 168.289,263.923 168.338,264.666 168.160 C 266.199 167.792,266.344 167.600,265.090 167.600 C 264.517 167.600,263.932 167.787,263.790 168.016 M242.800 168.800 C 244.168 169.238,245.219 169.238,244.200 168.800 C 243.760 168.611,243.040 168.462,242.600 168.468 C 241.957 168.477,241.996 168.543,242.800 168.800 M259.400 168.819 C 258.842 169.071,259.085 169.107,260.200 168.938 C 261.080 168.804,261.875 168.628,261.967 168.547 C 262.310 168.244,260.168 168.471,259.400 168.819 M134.491 170.100 C 133.810 171.984,133.904 172.494,134.626 170.830 C 134.953 170.077,135.166 169.299,135.101 169.102 C 135.035 168.905,134.760 169.354,134.491 170.100 M249.100 169.495 C 250.255 169.576,252.145 169.576,253.300 169.495 C 254.455 169.414,253.510 169.348,251.200 169.348 C 248.890 169.348,247.945 169.414,249.100 169.495 M119.979 176.255 C 119.758 176.836,119.652 177.385,119.743 177.476 C 119.833 177.567,120.099 177.092,120.333 176.420 C 120.853 174.928,120.539 174.782,119.979 176.255 M131.454 177.803 C 131.243 178.354,130.405 178.424,125.242 178.320 C 121.960 178.254,119.359 178.335,119.461 178.500 C 119.853 179.131,131.065 178.845,131.608 178.190 C 131.886 177.855,132.021 177.487,131.906 177.373 C 131.792 177.259,131.589 177.452,131.454 177.803 M189.550 178.511 C 189.722 178.682,192.548 178.772,195.831 178.710 L 201.800 178.597 195.519 178.399 C 192.064 178.289,189.378 178.340,189.550 178.511 M238.446 179.237 C 238.965 179.565,242.329 179.772,241.967 179.453 C 241.875 179.372,240.921 179.212,239.846 179.096 C 238.651 178.968,238.107 179.022,238.446 179.237 M259.905 179.483 C 260.402 179.579,261.122 179.575,261.505 179.475 C 261.887 179.375,261.480 179.296,260.600 179.301 C 259.720 179.305,259.407 179.387,259.905 179.483 M243.100 179.882 C 243.595 179.978,244.405 179.978,244.900 179.882 C 245.395 179.787,244.990 179.709,244.000 179.709 C 243.010 179.709,242.605 179.787,243.100 179.882 M255.500 179.882 C 255.995 179.978,256.805 179.978,257.300 179.882 C 257.795 179.787,257.390 179.709,256.400 179.709 C 255.410 179.709,255.005 179.787,255.500 179.882 M248.100 180.294 C 249.145 180.376,250.855 180.376,251.900 180.294 C 252.945 180.212,252.090 180.144,250.000 180.144 C 247.910 180.144,247.055 180.212,248.100 180.294 M181.200 219.000 C 180.005 220.210,179.151 221.200,179.302 221.200 C 179.453 221.200,180.453 220.300,181.525 219.200 C 183.770 216.895,183.933 216.851,185.212 218.213 L 186.164 219.226 147.242 258.156 C 117.337 288.067,108.364 297.262,108.513 297.843 C 108.695 298.554,108.710 298.551,108.754 297.803 C 108.782 297.312,123.753 282.050,147.660 258.138 L 186.519 219.271 185.560 218.058 C 184.225 216.370,183.682 216.487,181.200 219.000 M172.812 227.388 C 170.959 229.251,169.523 230.833,169.621 230.903 C 169.719 230.973,171.361 229.449,173.269 227.515 C 175.178 225.582,176.614 224.000,176.461 224.000 C 176.308 224.000,174.666 225.524,172.812 227.388 M163.588 236.612 C 161.956 238.255,160.744 239.600,160.896 239.600 C 161.251 239.600,166.869 233.936,166.691 233.757 C 166.617 233.684,165.221 234.968,163.588 236.612 M154.412 245.788 C 152.559 247.651,151.123 249.238,151.221 249.314 C 151.319 249.390,152.962 247.865,154.871 245.926 C 156.779 243.987,158.215 242.400,158.062 242.400 C 157.908 242.400,156.266 243.924,154.412 245.788 M145.588 254.612 C 143.734 256.476,142.338 258.000,142.485 258.000 C 142.845 258.000,149.280 251.547,149.100 251.367 C 149.022 251.289,147.441 252.749,145.588 254.612 M136.200 264.000 C 134.450 265.760,133.139 267.200,133.285 267.200 C 133.432 267.200,134.992 265.760,136.752 264.000 C 138.512 262.240,139.823 260.800,139.666 260.800 C 139.510 260.800,137.950 262.240,136.200 264.000 M127.188 273.012 C 125.334 274.876,123.938 276.400,124.085 276.400 C 124.445 276.400,130.880 269.947,130.700 269.767 C 130.622 269.689,129.041 271.149,127.188 273.012 M228.981 276.105 C 228.874 276.384,228.838 281.469,228.900 287.406 L 229.014 298.200 229.107 287.100 L 229.200 276.000 291.594 276.000 L 353.987 276.000 354.104 287.100 L 354.220 298.200 354.210 287.000 L 354.200 275.800 291.688 275.699 C 241.499 275.617,229.137 275.697,228.981 276.105 M118.279 281.921 C 116.585 283.624,115.200 285.138,115.200 285.285 C 115.200 285.431,116.650 284.102,118.421 282.330 C 120.193 280.559,121.578 279.045,121.500 278.967 C 121.421 278.888,119.972 280.218,118.279 281.921 M109.210 290.990 L 106.263 293.957 105.231 293.231 C 104.664 292.832,103.750 292.385,103.200 292.238 C 102.604 292.079,102.823 292.295,103.741 292.771 C 104.589 293.211,105.508 293.758,105.783 293.986 C 106.252 294.375,112.735 288.601,112.308 288.175 C 112.225 288.091,110.831 289.358,109.210 290.990 M198.700 291.082 C 199.195 291.178,200.005 291.178,200.500 291.082 C 200.995 290.987,200.590 290.909,199.600 290.909 C 198.610 290.909,198.205 290.987,198.700 291.082 M98.900 291.887 C 99.505 291.978,100.495 291.978,101.100 291.887 C 101.705 291.795,101.210 291.720,100.000 291.720 C 98.790 291.720,98.295 291.795,98.900 291.887 M94.087 293.900 C 93.130 294.835,93.114 294.881,93.981 294.206 C 95.688 292.876,95.769 292.800,95.486 292.800 C 95.336 292.800,94.706 293.295,94.087 293.900 M337.709 299.600 C 337.709 300.590,337.787 300.995,337.882 300.500 C 337.978 300.005,337.978 299.195,337.882 298.700 C 337.787 298.205,337.709 298.610,337.709 299.600 M190.501 300.200 C 190.505 301.080,190.587 301.393,190.683 300.895 C 190.779 300.398,190.775 299.678,190.675 299.295 C 190.575 298.913,190.496 299.320,190.501 300.200 M90.854 300.298 L 90.800 301.596 46.900 301.700 L 3.000 301.804 46.913 301.902 C 94.457 302.008,91.508 302.140,91.086 299.929 C 90.951 299.221,90.896 299.308,90.854 300.298 M108.909 300.800 C 108.909 301.790,108.987 302.195,109.082 301.700 C 109.178 301.205,109.178 300.395,109.082 299.900 C 108.987 299.405,108.909 299.810,108.909 300.800 M354.093 312.500 L 354.000 324.000 291.606 324.000 L 229.212 324.000 229.097 312.700 L 228.981 301.400 228.990 312.800 L 229.000 324.200 291.512 324.301 C 341.664 324.382,354.063 324.302,354.219 323.896 C 354.325 323.617,354.362 318.352,354.300 312.195 L 354.187 301.000 354.093 312.500 M198.700 309.082 C 199.195 309.178,200.005 309.178,200.500 309.082 C 200.995 308.987,200.590 308.909,199.600 308.909 C 198.610 308.909,198.205 308.987,198.700 309.082 " stroke="none" fill="#c3f1bb" fill-rule="evenodd"></path><path id="path3" d="M158.316 86.297 C 159.699 86.375,161.859 86.374,163.116 86.295 C 164.372 86.216,163.240 86.152,160.600 86.153 C 157.960 86.153,156.932 86.218,158.316 86.297 M206.928 132.400 C 206.928 133.830,207.001 134.415,207.089 133.700 C 207.178 132.985,207.178 131.815,207.089 131.100 C 207.001 130.385,206.928 130.970,206.928 132.400 M181.775 218.900 L 180.600 220.200 181.900 219.025 C 183.112 217.930,183.384 217.600,183.075 217.600 C 183.006 217.600,182.421 218.185,181.775 218.900 M172.981 227.700 L 171.400 229.400 173.100 227.819 C 174.681 226.348,174.984 226.000,174.681 226.000 C 174.616 226.000,173.851 226.765,172.981 227.700 M164.175 236.500 L 163.000 237.800 164.300 236.625 C 165.015 235.979,165.600 235.394,165.600 235.325 C 165.600 235.016,165.270 235.288,164.175 236.500 M154.975 245.700 L 153.800 247.000 155.100 245.825 C 156.312 244.730,156.584 244.400,156.275 244.400 C 156.206 244.400,155.621 244.985,154.975 245.700 M145.775 254.900 L 144.600 256.200 145.900 255.025 C 147.112 253.930,147.384 253.600,147.075 253.600 C 147.006 253.600,146.421 254.185,145.775 254.900 M136.575 264.100 L 135.400 265.400 136.700 264.225 C 137.912 263.130,138.184 262.800,137.875 262.800 C 137.806 262.800,137.221 263.385,136.575 264.100 M127.375 273.300 L 126.200 274.600 127.500 273.425 C 128.712 272.330,128.984 272.000,128.675 272.000 C 128.606 272.000,128.021 272.585,127.375 273.300 M231.380 278.508 C 231.273 278.788,231.237 283.243,231.300 288.408 L 231.415 297.800 231.508 288.101 L 231.600 278.403 291.700 278.300 L 351.800 278.197 291.687 278.099 C 243.373 278.019,231.537 278.100,231.380 278.508 M118.175 282.500 L 117.000 283.800 118.300 282.625 C 119.512 281.530,119.784 281.200,119.475 281.200 C 119.406 281.200,118.821 281.785,118.175 282.500 M108.975 291.700 L 107.800 293.000 109.100 291.825 C 110.312 290.730,110.584 290.400,110.275 290.400 C 110.206 290.400,109.621 290.985,108.975 291.700 M250.493 299.600 C 250.493 300.370,250.575 300.685,250.676 300.300 C 250.776 299.915,250.776 299.285,250.676 298.900 C 250.575 298.515,250.493 298.830,250.493 299.600 M231.389 311.600 L 231.400 321.800 291.600 321.802 L 351.800 321.804 291.707 321.701 L 231.614 321.597 231.496 311.499 L 231.379 301.400 231.389 311.600 M25.300 305.100 C 37.565 305.159,57.635 305.159,69.900 305.100 C 82.165 305.041,72.130 304.993,47.600 304.993 C 23.070 304.993,13.035 305.041,25.300 305.100 " stroke="none" fill="#acecac" fill-rule="evenodd"></path><path id="path4" d="M2.985 3.300 C 2.881 3.575,2.842 70.940,2.898 153.000 L 3.001 302.200 3.101 152.700 L 3.200 3.200 200.000 3.200 L 396.800 3.200 396.800 150.597 L 396.800 297.993 375.500 298.102 L 354.200 298.210 375.600 298.205 L 397.000 298.200 397.000 150.600 L 397.000 3.000 200.088 2.900 C 42.767 2.819,3.137 2.900,2.985 3.300 M246.600 85.567 C 245.280 85.695,247.530 85.802,251.600 85.804 C 256.350 85.807,257.997 85.717,256.200 85.554 C 252.842 85.249,249.840 85.253,246.600 85.567 M240.200 86.400 L 239.000 86.705 240.200 86.747 C 240.860 86.769,241.670 86.613,242.000 86.400 C 242.743 85.920,242.087 85.920,240.200 86.400 M261.200 86.400 C 261.750 86.576,262.650 86.717,263.200 86.713 C 264.098 86.706,264.078 86.674,263.000 86.400 C 261.308 85.969,259.856 85.969,261.200 86.400 M155.280 86.880 C 155.016 87.144,154.813 87.639,154.828 87.980 C 154.848 88.408,154.953 88.352,155.167 87.800 C 155.451 87.071,155.958 86.981,160.839 86.782 L 166.200 86.564 160.980 86.482 C 157.355 86.425,155.613 86.547,155.280 86.880 M265.400 87.200 C 265.840 87.389,266.560 87.538,267.000 87.532 C 267.643 87.523,267.604 87.457,266.800 87.200 C 265.432 86.762,264.381 86.762,265.400 87.200 M272.800 89.334 C 272.800 89.437,273.381 89.724,274.091 89.972 C 274.801 90.219,275.206 90.257,274.991 90.056 C 274.535 89.629,272.800 89.058,272.800 89.334 M229.100 90.229 C 227.549 91.070,227.725 91.361,229.300 90.559 C 230.808 89.793,231.075 89.594,230.567 89.616 C 230.365 89.625,229.705 89.901,229.100 90.229 M275.738 91.462 C 275.694 92.221,275.778 92.363,276.032 91.961 C 276.468 91.272,276.506 90.400,276.100 90.400 C 275.935 90.400,275.772 90.878,275.738 91.462 M226.300 91.829 C 225.695 92.157,225.200 92.510,225.200 92.613 C 225.200 92.999,225.832 92.757,226.800 92.000 C 227.989 91.070,227.811 91.009,226.300 91.829 M249.911 95.493 C 250.851 95.578,252.291 95.577,253.111 95.491 C 253.930 95.405,253.160 95.336,251.400 95.337 C 249.640 95.339,248.970 95.409,249.911 95.493 M243.400 96.000 C 242.381 96.438,243.432 96.438,244.800 96.000 C 245.604 95.743,245.643 95.677,245.000 95.668 C 244.560 95.662,243.840 95.811,243.400 96.000 M256.833 95.747 C 256.925 95.828,257.720 96.014,258.600 96.162 C 259.746 96.354,260.030 96.314,259.600 96.021 C 259.060 95.653,256.432 95.393,256.833 95.747 M218.575 98.500 L 217.400 99.800 218.700 98.625 C 219.415 97.979,220.000 97.394,220.000 97.325 C 220.000 97.016,219.670 97.288,218.575 98.500 M272.204 99.187 C 272.002 99.824,271.721 99.974,271.068 99.791 C 270.381 99.598,270.325 99.635,270.800 99.968 C 271.130 100.199,271.529 100.391,271.686 100.394 C 272.065 100.402,272.920 98.786,272.669 98.536 C 272.561 98.428,272.352 98.721,272.204 99.187 M233.508 100.012 C 232.502 100.678,231.436 101.525,231.139 101.893 C 230.843 102.262,231.436 101.942,232.457 101.182 C 233.479 100.422,234.649 99.586,235.057 99.324 C 235.466 99.061,235.696 98.836,235.569 98.824 C 235.441 98.811,234.514 99.345,233.508 100.012 M161.444 101.400 C 161.773 102.871,162.002 103.190,161.994 102.167 C 161.991 101.745,161.805 101.130,161.582 100.800 C 161.285 100.362,161.248 100.524,161.444 101.400 M158.649 103.415 C 158.512 103.773,158.415 104.366,158.434 104.733 C 158.453 105.100,158.627 104.869,158.821 104.220 C 159.198 102.958,159.065 102.333,158.649 103.415 M226.826 106.122 L 225.851 107.400 227.126 106.225 C 228.451 105.003,228.603 104.785,228.100 104.822 C 227.935 104.834,227.362 105.419,226.826 106.122 M176.000 113.084 C 176.000 113.651,177.163 116.400,177.402 116.400 C 177.507 116.400,177.296 115.635,176.932 114.700 C 176.195 112.807,176.000 112.469,176.000 113.084 M143.267 117.580 C 143.033 118.251,142.927 118.800,143.031 118.800 C 143.301 118.800,144.056 116.722,143.857 116.524 C 143.767 116.433,143.501 116.908,143.267 117.580 M208.649 117.815 C 208.512 118.173,208.415 118.766,208.434 119.133 C 208.453 119.500,208.627 119.269,208.821 118.620 C 209.198 117.358,209.065 116.733,208.649 117.815 M220.649 118.615 C 220.512 118.973,220.415 119.566,220.434 119.933 C 220.453 120.300,220.627 120.069,220.821 119.420 C 221.198 118.158,221.065 117.533,220.649 118.615 M207.709 124.000 C 207.709 124.990,207.787 125.395,207.882 124.900 C 207.978 124.405,207.978 123.595,207.882 123.100 C 207.787 122.605,207.709 123.010,207.709 124.000 M219.693 124.000 C 219.693 124.770,219.775 125.085,219.876 124.700 C 219.976 124.315,219.976 123.685,219.876 123.300 C 219.775 122.915,219.693 123.230,219.693 124.000 M169.216 123.454 C 169.207 123.704,169.463 124.514,169.784 125.254 C 170.106 125.994,170.376 126.396,170.384 126.146 C 170.393 125.896,170.137 125.086,169.816 124.346 C 169.494 123.606,169.224 123.204,169.216 123.454 M219.293 126.800 C 219.293 127.570,219.375 127.885,219.476 127.500 C 219.576 127.115,219.576 126.485,219.476 126.100 C 219.375 125.715,219.293 126.030,219.293 126.800 M207.320 128.400 C 207.320 129.610,207.395 130.105,207.487 129.500 C 207.578 128.895,207.578 127.905,207.487 127.300 C 207.395 126.695,207.320 127.190,207.320 128.400 M207.320 136.800 C 207.320 138.010,207.395 138.505,207.487 137.900 C 207.578 137.295,207.578 136.305,207.487 135.700 C 207.395 135.095,207.320 135.590,207.320 136.800 M219.301 138.600 C 219.305 139.480,219.387 139.793,219.483 139.295 C 219.579 138.798,219.575 138.078,219.475 137.695 C 219.375 137.313,219.296 137.720,219.301 138.600 M146.187 138.440 C 146.041 138.902,146.085 139.445,146.285 139.645 C 146.895 140.255,174.912 139.908,175.037 139.290 C 175.094 139.010,175.049 138.965,174.937 139.190 C 174.804 139.458,169.829 139.600,160.523 139.600 L 146.313 139.600 146.564 138.600 C 146.868 137.389,146.562 137.260,146.187 138.440 M207.709 141.600 C 207.709 142.590,207.787 142.995,207.882 142.500 C 207.978 142.005,207.978 141.195,207.882 140.700 C 207.787 140.205,207.709 140.610,207.709 141.600 M219.701 141.800 C 219.705 142.680,219.787 142.993,219.883 142.495 C 219.979 141.998,219.975 141.278,219.875 140.895 C 219.775 140.513,219.696 140.920,219.701 141.800 M132.891 144.100 C 132.210 145.984,132.304 146.494,133.026 144.830 C 133.353 144.077,133.566 143.299,133.501 143.102 C 133.435 142.905,133.160 143.354,132.891 144.100 M191.851 153.974 C 192.227 155.439,193.171 157.486,193.155 156.800 C 193.147 156.470,192.794 155.480,192.371 154.600 C 191.948 153.720,191.714 153.438,191.851 153.974 M224.873 157.000 C 225.123 157.550,225.484 158.000,225.673 158.000 C 225.863 158.000,225.724 157.550,225.363 157.000 C 225.003 156.450,224.643 156.000,224.563 156.000 C 224.483 156.000,224.622 156.450,224.873 157.000 M228.600 161.600 C 229.683 162.700,230.660 163.600,230.770 163.600 C 230.880 163.600,230.083 162.700,229.000 161.600 C 227.917 160.500,226.940 159.600,226.830 159.600 C 226.720 159.600,227.517 160.500,228.600 161.600 M213.560 161.000 C 214.234 162.305,214.788 163.028,214.785 162.600 C 214.783 162.380,214.414 161.750,213.964 161.200 C 213.421 160.536,213.285 160.469,213.560 161.000 M125.250 163.850 C 124.773 165.096,124.450 166.184,124.533 166.266 C 124.615 166.349,125.073 165.396,125.550 164.150 C 126.027 162.904,126.350 161.816,126.267 161.734 C 126.185 161.651,125.727 162.604,125.250 163.850 M217.096 166.200 C 217.997 167.300,219.600 169.010,220.658 170.000 C 221.910 171.170,221.616 170.750,219.818 168.800 C 215.930 164.582,215.204 163.888,217.096 166.200 M239.600 168.382 C 239.930 168.605,240.545 168.791,240.967 168.794 C 241.990 168.802,241.671 168.573,240.200 168.244 C 239.324 168.048,239.162 168.085,239.600 168.382 M263.800 168.400 C 262.693 168.682,262.677 168.709,263.600 168.747 C 264.150 168.769,264.870 168.613,265.200 168.400 C 265.881 167.960,265.529 167.960,263.800 168.400 M242.821 169.221 C 243.355 169.560,246.342 169.781,245.967 169.455 C 245.875 169.375,244.999 169.208,244.021 169.082 C 242.870 168.935,242.446 168.984,242.821 169.221 M258.800 169.200 L 257.000 169.480 258.600 169.512 C 259.480 169.529,260.560 169.389,261.000 169.200 C 261.927 168.802,261.361 168.802,258.800 169.200 M249.113 169.895 C 250.276 169.976,252.076 169.976,253.113 169.893 C 254.151 169.811,253.200 169.745,251.000 169.746 C 248.800 169.747,247.951 169.814,249.113 169.895 M226.400 174.184 C 226.400 174.294,227.120 174.751,228.000 175.200 C 228.880 175.649,229.600 175.926,229.600 175.816 C 229.600 175.706,228.880 175.249,228.000 174.800 C 227.120 174.351,226.400 174.074,226.400 174.184 M265.600 178.018 C 265.162 178.315,265.324 178.352,266.200 178.156 C 267.671 177.827,267.990 177.598,266.967 177.606 C 266.545 177.609,265.930 177.795,265.600 178.018 M238.400 178.800 C 238.950 178.976,239.760 179.120,240.200 179.120 C 240.833 179.120,240.792 179.054,240.000 178.800 C 239.450 178.624,238.640 178.480,238.200 178.480 C 237.567 178.480,237.608 178.546,238.400 178.800 M261.200 178.800 C 260.436 179.294,261.258 179.294,262.800 178.800 L 263.800 178.480 262.800 178.446 C 262.250 178.427,261.530 178.587,261.200 178.800 M246.063 179.706 C 248.547 179.954,251.404 179.953,254.063 179.705 C 258.062 179.331,257.933 179.318,250.200 179.319 C 242.656 179.320,242.420 179.342,246.063 179.706 M145.196 255.801 C 123.963 277.030,106.683 294.400,106.795 294.400 C 106.907 294.400,124.311 277.088,145.472 255.928 C 185.968 215.433,185.078 216.253,185.246 219.349 C 185.286 220.068,185.322 220.087,185.481 219.470 C 185.652 218.812,184.626 217.199,184.038 217.201 C 183.907 217.201,166.428 234.571,145.196 255.801 M179.660 225.042 C 179.362 225.378,179.199 225.732,179.295 225.829 C 179.392 225.926,179.798 225.644,180.198 225.202 C 180.597 224.761,180.761 224.407,180.562 224.415 C 180.363 224.424,179.957 224.705,179.660 225.042 M170.460 234.242 C 170.162 234.578,169.999 234.932,170.095 235.029 C 170.192 235.126,170.598 234.844,170.998 234.402 C 171.397 233.961,171.561 233.607,171.362 233.615 C 171.163 233.624,170.757 233.905,170.460 234.242 M161.260 243.442 C 160.962 243.778,160.799 244.132,160.895 244.229 C 160.992 244.326,161.398 244.044,161.798 243.602 C 162.197 243.161,162.361 242.807,162.162 242.815 C 161.963 242.824,161.557 243.105,161.260 243.442 M152.060 252.642 C 151.762 252.978,151.599 253.332,151.695 253.429 C 151.792 253.526,152.198 253.244,152.598 252.802 C 152.997 252.361,153.161 252.007,152.962 252.015 C 152.763 252.024,152.357 252.305,152.060 252.642 M351.692 288.091 L 351.600 297.981 344.700 298.101 L 337.800 298.220 344.713 298.310 C 349.998 298.379,351.671 298.280,351.820 297.892 C 351.927 297.613,351.963 293.068,351.900 287.792 L 351.785 278.200 351.692 288.091 M125.260 279.442 C 124.962 279.778,124.799 280.132,124.895 280.229 C 124.992 280.326,125.398 280.044,125.798 279.602 C 126.197 279.161,126.361 278.807,126.162 278.815 C 125.963 278.824,125.557 279.105,125.260 279.442 M116.060 288.642 C 115.762 288.978,115.599 289.332,115.695 289.429 C 115.792 289.526,116.198 289.244,116.598 288.802 C 116.997 288.361,117.161 288.007,116.962 288.015 C 116.763 288.024,116.357 288.305,116.060 288.642 M197.200 291.606 C 196.778 291.882,197.015 291.923,198.000 291.742 C 199.725 291.425,200.051 291.198,198.767 291.206 C 198.235 291.209,197.530 291.389,197.200 291.606 M101.400 292.400 C 102.596 292.914,103.595 292.914,102.800 292.400 C 102.470 292.187,101.840 292.022,101.400 292.034 L 100.600 292.056 101.400 292.400 M203.200 292.154 C 203.200 292.239,203.695 292.627,204.300 293.016 L 205.400 293.724 204.638 292.862 C 203.964 292.099,203.200 291.723,203.200 292.154 M104.509 293.600 C 105.069 294.040,105.657 294.400,105.817 294.400 C 105.977 294.400,105.650 294.040,105.091 293.600 C 104.531 293.160,103.943 292.800,103.783 292.800 C 103.623 292.800,103.950 293.160,104.509 293.600 M92.598 296.002 C 92.198 296.444,91.966 296.899,92.082 297.015 C 92.197 297.130,92.590 296.769,92.955 296.212 C 93.752 294.996,93.593 294.902,92.598 296.002 M191.043 297.833 C 190.706 298.709,190.749 301.701,191.106 302.262 C 191.268 302.516,191.400 301.481,191.400 299.962 C 191.400 296.941,191.395 296.914,191.043 297.833 M231.547 298.108 C 231.716 298.277,236.073 298.366,241.228 298.307 L 250.600 298.199 240.919 297.999 C 235.595 297.890,231.377 297.938,231.547 298.108 M108.258 299.200 C 108.575 300.925,108.802 301.251,108.794 299.967 C 108.791 299.435,108.611 298.730,108.394 298.400 C 108.118 297.978,108.077 298.215,108.258 299.200 M213.500 298.299 C 216.415 298.367,221.185 298.367,224.100 298.299 C 227.015 298.231,224.630 298.175,218.800 298.175 C 212.970 298.175,210.585 298.231,213.500 298.299 M207.982 301.634 C 207.736 302.093,207.623 302.557,207.731 302.664 C 207.839 302.772,208.045 302.490,208.188 302.037 C 208.442 301.238,208.753 301.210,218.725 301.100 L 229.000 300.986 218.714 300.893 C 208.649 300.802,208.419 300.818,207.982 301.634 M231.461 301.100 C 231.359 301.265,234.093 301.354,237.537 301.297 C 249.392 301.101,250.578 300.964,241.124 300.882 C 235.912 300.837,231.563 300.935,231.461 301.100 M344.693 301.094 L 351.587 301.219 351.704 311.509 L 351.821 321.800 351.811 311.400 L 351.800 301.000 344.800 300.985 L 337.800 300.970 344.693 301.094 M375.500 301.098 L 396.800 301.207 396.800 349.004 L 396.800 396.800 200.002 396.800 L 3.203 396.800 3.099 351.000 L 2.995 305.200 2.997 351.100 L 3.000 397.000 200.000 397.000 L 397.000 397.000 397.000 349.000 L 397.000 301.000 375.600 300.995 L 354.200 300.989 375.500 301.098 M206.606 304.688 L 205.904 305.800 206.830 304.911 C 207.339 304.422,207.655 303.922,207.532 303.799 C 207.409 303.676,206.992 304.076,206.606 304.688 M95.144 307.976 C 95.664 308.429,96.279 308.800,96.511 308.800 C 97.003 308.800,96.979 308.780,95.400 307.855 L 94.200 307.153 95.144 307.976 M200.600 308.400 C 199.493 308.682,199.477 308.709,200.400 308.747 C 200.950 308.769,201.670 308.613,202.000 308.400 C 202.681 307.960,202.329 307.960,200.600 308.400 M97.738 309.294 C 97.992 309.456,99.010 309.588,100.000 309.588 C 100.990 309.588,102.008 309.456,102.262 309.294 C 102.516 309.132,101.498 309.000,100.000 309.000 C 98.502 309.000,97.484 309.132,97.738 309.294 " stroke="none" fill="#a4ec9c" fill-rule="evenodd"></path></g></svg>