<svg width="20" height="20" viewBox="0 0 20 20" fill="none" xmlns="http://www.w3.org/2000/svg">
<path d="M8.24933 10.2505L8.24933 18.5005L1.49933 2.00046L17.9993 8.75046L9.74933 8.75046C8.91965 8.75046 8.24933 9.42077 8.24933 10.2505ZM9.74933 11.7505L9.74933 10.2505L11.2493 10.2505L17.9993 10.2505C18.7165 10.2505 19.3306 9.74421 19.4712 9.04108C19.6118 8.33796 19.2321 7.63483 18.5665 7.36296L2.06652 0.612963C1.50871 0.383274 0.866522 0.514524 0.439959 0.941088C0.0133966 1.36765 -0.117853 2.00984 0.111834 2.56765L6.86183 19.0676C7.13371 19.7333 7.83683 20.1083 8.53996 19.9723C9.24308 19.8364 9.74933 19.2176 9.74933 18.5005L9.74933 11.7505Z" fill="#333333"/>
</svg>
