<svg width="23" height="24" viewBox="0 0 23 24" fill="none" xmlns="http://www.w3.org/2000/svg">
<path d="M12.3742 0C11.207 0 10.218 0.764062 9.87578 1.81875C9.50547 1.61719 9.07891 1.5 8.62422 1.5C7.17578 1.5 5.99922 2.67656 5.99922 4.125V13.5375L4.48047 12.0187C3.45391 10.9922 1.79453 10.9922 0.767969 12.0187C-0.258594 13.0453 -0.258594 14.7047 0.767969 15.7313L5.63359 20.5969C7.81328 22.7766 10.7711 24 13.8508 24H14.2492C18.8055 24 22.4992 20.3062 22.4992 15.75V7.125C22.4992 5.67656 21.3227 4.5 19.8742 4.5C19.4711 4.5 19.0914 4.58906 18.7492 4.75313V4.125C18.7492 2.67656 17.5727 1.5 16.1242 1.5C15.6695 1.5 15.243 1.61719 14.8727 1.81875C14.5305 0.764062 13.5414 0 12.3742 0ZM8.62422 3C9.24766 3 9.74922 3.50156 9.74922 4.125V4.12969V11.25C9.74922 11.6625 10.0867 12 10.4992 12C10.9117 12 11.2492 11.6625 11.2492 11.25V3.75V3.74531V2.625C11.2492 2.00156 11.7508 1.5 12.3742 1.5C12.9977 1.5 13.4992 2.00156 13.4992 2.625V4.125V4.12969V11.25C13.4992 11.6625 13.8367 12 14.2492 12C14.6617 12 14.9992 11.6625 14.9992 11.25V4.12031C14.9992 3.50156 15.5055 3 16.1242 3C16.7477 3 17.2492 3.50156 17.2492 4.125V7.125C17.2492 7.125 17.2492 7.125 17.2492 7.12969V11.25C17.2492 11.6625 17.5867 12 17.9992 12C18.4117 12 18.7492 11.6625 18.7492 11.25V7.12031C18.7492 6.50156 19.2555 6 19.8742 6C20.4977 6 20.9992 6.50156 20.9992 7.125V15.75C20.9992 19.4766 17.9758 22.5 14.2492 22.5H13.8508C11.1648 22.5 8.59141 21.4313 6.69297 19.5328L1.82734 14.6719C1.38672 14.2312 1.38672 13.5188 1.82734 13.0828C2.26797 12.6469 2.98047 12.6422 3.41641 13.0828L6.21484 15.8812C6.43047 16.0969 6.75391 16.1578 7.03047 16.0453C7.30703 15.9328 7.49453 15.6562 7.49453 15.3516V4.125C7.49453 3.50156 7.99609 3 8.61953 3H8.62422Z" fill="#333333"/>
</svg>
