<svg width="26" height="35" viewBox="0 0 26 35" fill="none" xmlns="http://www.w3.org/2000/svg">
<path d="M0 34C0 34.5523 0.447715 35 1 35C1.55228 35 2 34.5523 2 34H0ZM25.7071 8.70711C26.0976 8.31658 26.0976 7.68342 25.7071 7.29289L19.3431 0.928932C18.9526 0.538408 18.3195 0.538408 17.9289 0.928932C17.5384 1.31946 17.5384 1.95262 17.9289 2.34315L23.5858 8L17.9289 13.6569C17.5384 14.0474 17.5384 14.6805 17.9289 15.0711C18.3195 15.4616 18.9526 15.4616 19.3431 15.0711L25.7071 8.70711ZM2 34V20H0V34H2ZM13 9H25V7H13V9ZM2 20C2 13.9249 6.92487 9 13 9V7C5.8203 7 0 12.8203 0 20H2Z" fill="#4F4F4F"/>
</svg>
