<svg width="62" height="56" viewBox="0 0 62 56" fill="none" xmlns="http://www.w3.org/2000/svg">
<rect x="3.16211" y="0.5" width="55.788" height="55" rx="9.99993" fill="white" stroke="#E0E0E0"/>
<path d="M44.2229 21.3864H42.7962C42.7266 20.4091 42.5643 19.5909 42.3091 18.9318C42.0539 18.2727 41.6827 17.7614 41.1956 17.3977C40.7316 17.0114 40.1401 16.7386 39.421 16.5795C38.7018 16.4205 37.8435 16.3409 36.846 16.3409C35.9877 16.3409 35.2918 16.3636 34.7582 16.4091C34.2479 16.4318 33.8535 16.4886 33.5751 16.5795C33.2968 16.6705 33.1112 16.7841 33.0184 16.9205C32.9488 17.0341 32.914 17.1932 32.914 17.3977V35.6364C32.914 36.3636 32.9604 36.9886 33.0532 37.5114C33.1692 38.0341 33.378 38.4659 33.6795 38.8068C34.0043 39.125 34.4567 39.375 35.0366 39.5568C35.6397 39.7159 36.4285 39.8068 37.4028 39.8295V41.125H24.2497V39.8295C25.224 39.8068 26.0127 39.7159 26.6158 39.5568C27.219 39.375 27.6713 39.125 27.9729 38.8068C28.2977 38.4659 28.5064 38.0341 28.5992 37.5114C28.7152 36.9886 28.7732 36.3636 28.7732 35.6364V17.3977C28.7732 17.1932 28.7268 17.0341 28.634 16.9205C28.5644 16.7841 28.4021 16.6705 28.1469 16.5795C27.9149 16.4886 27.5785 16.4318 27.1378 16.4091C26.697 16.3636 26.1055 16.3409 25.3631 16.3409C24.4584 16.3409 23.6117 16.375 22.823 16.4432C22.0575 16.5114 21.3847 16.7159 20.8048 17.0568C20.2481 17.375 19.7957 17.875 19.4477 18.5568C19.0998 19.2386 18.9142 20.1818 18.891 21.3864H17.6035V14.875H43.8749L44.2229 21.3864Z" fill="#333333"/>
<rect x="0.5" y="25.5" width="5" height="5" fill="#333333" stroke="white"/>
<rect x="56" y="25.5" width="5" height="5" fill="#333333" stroke="white"/>
</svg>
