<?xml version="1.0" encoding="UTF-8"?>
<svg id="Layer_2" data-name="Layer 2" xmlns="http://www.w3.org/2000/svg" viewBox="0 0 24 24">
  <defs>
    <style>
      .cls-1 {
        fill: none;
        stroke: #262626;
        stroke-linejoin: round;
        stroke-width: 1.05px;
      }

      .cls-2 {
        fill: #262626;
        stroke-width: 0px;
      }
    </style>
  </defs>
  <path class="cls-1" d="M2.72,9.12c-.45-2.25-.07-4.26,1.25-5.51,2.76-2.62,8.57-.99,12.99,3.65s5.76,10.53,3,13.15c-2.76,2.62-8.57.99-12.99-3.65-.95-1-1.76-2.06-2.42-3.13"/>
  <g>
    <path class="cls-1" d="M14.86,2.76c2.25-.45,4.26-.07,5.51,1.25,2.62,2.76.99,8.57-3.65,12.99-4.64,4.42-10.53,5.76-13.15,3-2.62-2.76-.99-8.57,3.65-12.99.69-.66,1.41-1.25,2.14-1.76"/>
    <polygon class="cls-2" points="8.66 7.91 9.12 5.45 6.65 4.99 7.89 4.14 10.36 4.59 9.9 7.06 8.66 7.91"/>
  </g>
  <g>
    <path class="cls-2" d="M8.16,11.49c.08-.03.15-.07.2-.13s.11-.12.14-.19.05-.15.05-.23c0-.16-.06-.3-.18-.41-.12-.11-.27-.16-.46-.16-.2,0-.36.07-.49.2s-.19.3-.2.51h-.72c0-.21.04-.4.11-.57s.17-.32.29-.44c.12-.12.27-.21.44-.28.17-.06.36-.1.57-.1s.38.03.55.09.31.14.43.25c.12.1.21.23.28.37.07.14.1.3.1.46,0,.2-.05.38-.14.54-.1.16-.24.29-.42.38.23.08.42.22.55.4s.2.4.2.64c0,.2-.04.38-.12.54-.08.16-.18.3-.32.42-.13.12-.3.21-.48.27-.19.07-.39.1-.61.1-.23,0-.44-.03-.63-.1s-.35-.17-.48-.29c-.13-.13-.23-.28-.31-.46-.07-.18-.11-.39-.12-.61h.72c0,.11.03.22.08.31.04.09.1.18.17.25.07.07.16.13.25.17s.21.06.32.06c.22,0,.4-.06.55-.18.14-.12.21-.29.21-.5,0-.2-.08-.36-.23-.48-.15-.12-.35-.18-.58-.18h-.21v-.6h.21c.09,0,.17-.02.25-.05Z"/>
    <path class="cls-2" d="M13.19,12.6c0,.22-.04.43-.12.62-.08.19-.19.35-.34.49-.14.14-.31.25-.51.33-.19.08-.4.12-.63.12s-.44-.04-.64-.12c-.19-.08-.36-.19-.51-.33s-.25-.3-.34-.49c-.08-.19-.12-.39-.12-.62,0-.19.04-.39.11-.6.07-.21.19-.44.35-.69l1.01-1.55h.87l-1.03,1.49c.1-.08.25-.12.43-.12.21,0,.4.04.58.12.18.08.33.18.46.31s.23.29.3.46c.07.18.11.37.11.57ZM12.44,12.63c0-.12-.02-.23-.07-.33-.04-.1-.11-.19-.18-.27-.08-.08-.17-.14-.27-.18s-.21-.07-.33-.07-.23.02-.34.06c-.1.04-.19.1-.27.18-.08.08-.14.17-.18.27s-.07.21-.07.33.02.22.07.32c.04.1.1.19.18.27s.17.14.27.18.21.07.34.07.23-.02.33-.07.2-.1.27-.18c.08-.08.14-.16.18-.26s.07-.21.07-.32Z"/>
    <path class="cls-2" d="M17.32,11.92c0,.29-.04.58-.11.85-.08.27-.19.51-.34.71-.15.21-.33.37-.56.49-.22.12-.49.19-.78.19s-.56-.06-.78-.19c-.22-.12-.41-.29-.56-.49-.15-.21-.26-.44-.34-.71s-.11-.55-.11-.85.04-.57.11-.84.19-.51.34-.71c.15-.21.34-.37.56-.49.22-.12.48-.19.78-.19s.56.06.78.19c.22.12.41.29.56.49.15.21.26.44.34.71.08.27.11.55.11.84ZM16.57,11.92c0-.19-.02-.38-.06-.57s-.1-.35-.19-.49c-.08-.15-.19-.26-.32-.35s-.29-.13-.47-.13-.34.04-.47.13c-.13.09-.24.2-.32.35-.08.14-.15.31-.19.49s-.06.37-.06.57.02.39.06.57.1.35.19.49.19.26.32.35c.13.09.29.13.47.13s.34-.04.47-.13c.13-.08.24-.2.32-.35s.15-.31.19-.49.06-.38.06-.57Z"/>
  </g>
</svg>