<?xml version="1.0" encoding="UTF-8"?>
<svg id="Layer_2" data-name="Layer 2" xmlns="http://www.w3.org/2000/svg" viewBox="0 0 24 24">
  <defs>
    <style>
      .cls-1 {
        fill: #262626;
        stroke-width: 0px;
      }
    </style>
  </defs>
  <path class="cls-1" d="M14,2.67c0-.74-.6-1.33-1.33-1.33s-1.33.6-1.33,1.33v8.67c0,.37-.3.67-.67.67s-.67-.3-.67-.67v-7.33c0-.74-.6-1.33-1.33-1.33s-1.33.6-1.33,1.33v11.33c0,.06,0,.13,0,.19l-2.52-2.4c-.67-.63-1.72-.61-2.36.06s-.61,1.72.06,2.36l4.68,4.46c1.8,1.71,4.18,2.67,6.67,2.67h.8c4.05,0,7.33-3.28,7.33-7.33V6.67c0-.74-.6-1.33-1.33-1.33s-1.33.6-1.33,1.33v4.67c0,.37-.3.67-.67.67s-.67-.3-.67-.67v-7.33c0-.74-.6-1.33-1.33-1.33s-1.33.6-1.33,1.33v7.33c0,.37-.3.67-.67.67s-.67-.3-.67-.67V2.67Z"/>
</svg>