<?xml version="1.0" encoding="UTF-8"?>
<svg id="Layer_2" data-name="Layer 2" xmlns="http://www.w3.org/2000/svg" viewBox="0 0 24 24">
  <defs>
    <style>
      .cls-1 {
        fill: #262626;
        stroke-width: 0px;
      }
    </style>
  </defs>
  <path class="cls-1" d="M19.69,6c.17,0,.31.14.31.31v11.38c0,.17-.14.31-.31.31H4.31c-.17,0-.31-.14-.31-.31V6.31c0-.17.14-.31.31-.31h15.38M19.69,4H4.31c-1.28,0-2.31,1.03-2.31,2.31v11.38c0,1.28,1.03,2.31,2.31,2.31h15.38c1.28,0,2.31-1.03,2.31-2.31V6.31c0-1.28-1.03-2.31-2.31-2.31h0Z"/>
</svg>