<?xml version="1.0" encoding="utf-8"?><!-- Uploaded to: SVG Repo, www.svgrepo.com, Generator: SVG Repo Mixer Tools -->
<svg width="800px" height="800px" viewBox="0 0 24 24" fill="none" xmlns="http://www.w3.org/2000/svg">
<path d="M8.63 16.17H1.78C1.67901 16.174 1.57825 16.1576 1.48377 16.1217C1.38928 16.0859 1.30302 16.0313 1.23017 15.9612C1.15732 15.8912 1.09937 15.8071 1.05982 15.7141C1.02027 15.6211 0.999919 15.5211 1 15.42V8.57999C1 8.38107 1.07902 8.19031 1.21967 8.04966C1.36032 7.909 1.55109 7.82999 1.75 7.82999H8.63C8.82891 7.82999 9.01968 7.909 9.16033 8.04966C9.30098 8.19031 9.38 8.38107 9.38 8.57999V15.42C9.38 15.5185 9.3606 15.616 9.32291 15.707C9.28522 15.798 9.22997 15.8807 9.16033 15.9503C9.09069 16.02 9.00801 16.0752 8.91701 16.1129C8.82602 16.1506 8.72849 16.17 8.63 16.17ZM2.53 14.67H7.88V9.32999H2.53V14.67Z" fill="#000000"/>
<path d="M8.63 18C8.4319 17.9974 8.24263 17.9176 8.10254 17.7775C7.96244 17.6374 7.88259 17.4481 7.88 17.25V6.75C7.88 6.55109 7.95902 6.36032 8.09967 6.21967C8.24033 6.07902 8.43109 6 8.63 6C8.82892 6 9.01968 6.07902 9.16033 6.21967C9.30099 6.36032 9.38 6.55109 9.38 6.75V17.25C9.37741 17.4481 9.29757 17.6374 9.15747 17.7775C9.01738 17.9176 8.82811 17.9974 8.63 18Z" fill="#000000"/>
<path d="M22.22 16.17H15.37C15.1711 16.17 14.9803 16.091 14.8397 15.9503C14.699 15.8097 14.62 15.6189 14.62 15.42V8.57999C14.62 8.38107 14.699 8.19031 14.8397 8.04966C14.9803 7.909 15.1711 7.82999 15.37 7.82999H22.22C22.4189 7.82999 22.6097 7.909 22.7503 8.04966C22.891 8.19031 22.97 8.38107 22.97 8.57999V15.42C22.97 15.5185 22.9506 15.616 22.9129 15.707C22.8752 15.798 22.82 15.8807 22.7503 15.9503C22.6807 16.02 22.598 16.0752 22.507 16.1129C22.416 16.1506 22.3185 16.17 22.22 16.17ZM16.12 14.67H21.47V9.32999H16.12V14.67Z" fill="#000000"/>
<path d="M15.37 18C15.1719 17.9974 14.9826 17.9176 14.8425 17.7775C14.7024 17.6374 14.6226 17.4481 14.62 17.25V6.75C14.62 6.65151 14.6394 6.55398 14.6771 6.46299C14.7148 6.37199 14.77 6.28931 14.8397 6.21967C14.9093 6.15003 14.992 6.09478 15.083 6.05709C15.174 6.0194 15.2715 6 15.37 6C15.4685 6 15.566 6.0194 15.657 6.05709C15.748 6.09478 15.8307 6.15003 15.9003 6.21967C15.97 6.28931 16.0252 6.37199 16.0629 6.46299C16.1006 6.55398 16.12 6.65151 16.12 6.75V17.25C16.1174 17.4481 16.0376 17.6374 15.8975 17.7775C15.7574 17.9176 15.5681 17.9974 15.37 18Z" fill="#000000"/>
</svg>